<svg xmlns="http://www.w3.org/2000/svg" viewBox="0 0 512 512" shape-rendering="crispEdges">
<rect width="512" height="512" fill="#8fd0f5"/><g fill="#ffffff" transform="translate(40 70) scale(1)"><rect x="0" y="8" width="56" height="16"/><rect x="12" y="0" width="28" height="8"/><rect x="8" y="24" width="40" height="6"/></g><g fill="#ffffff" transform="translate(400 110) scale(0.8)"><rect x="0" y="8" width="56" height="16"/><rect x="12" y="0" width="28" height="8"/><rect x="8" y="24" width="40" height="6"/></g><g transform="translate(256 256) scale(0.78) translate(-256 -256)"><g transform="matrix(20 -11.5 20 11.5 96 180)"><rect x="0" y="0" width="1.02" height="1.02" fill="rgb(98,165,53)"/><rect x="1" y="0" width="1.02" height="1.02" fill="rgb(97,164,53)"/><rect x="2" y="0" width="1.02" height="1.02" fill="rgb(113,182,66)"/><rect x="3" y="0" width="1.02" height="1.02" fill="rgb(104,172,58)"/><rect x="4" y="0" width="1.02" height="1.02" fill="rgb(104,172,58)"/><rect x="5" y="0" width="1.02" height="1.02" fill="rgb(101,169,56)"/><rect x="6" y="0" width="1.02" height="1.02" fill="rgb(110,178,63)"/><rect x="7" y="0" width="1.02" height="1.02" fill="rgb(123,193,73)"/><rect x="0" y="1" width="1.02" height="1.02" fill="rgb(119,188,70)"/><rect x="1" y="1" width="1.02" height="1.02" fill="rgb(95,162,51)"/><rect x="2" y="1" width="1.02" height="1.02" fill="rgb(116,185,67)"/><rect x="3" y="1" width="1.02" height="1.02" fill="rgb(101,169,56)"/><rect x="4" y="1" width="1.02" height="1.02" fill="rgb(98,165,53)"/><rect x="5" y="1" width="1.02" height="1.02" fill="rgb(124,194,74)"/><rect x="6" y="1" width="1.02" height="1.02" fill="rgb(119,189,70)"/><rect x="7" y="1" width="1.02" height="1.02" fill="rgb(109,177,62)"/><rect x="0" y="2" width="1.02" height="1.02" fill="rgb(116,186,68)"/><rect x="1" y="2" width="1.02" height="1.02" fill="rgb(97,164,52)"/><rect x="2" y="2" width="1.02" height="1.02" fill="rgb(108,176,61)"/><rect x="3" y="2" width="1.02" height="1.02" fill="rgb(114,183,66)"/><rect x="4" y="2" width="1.02" height="1.02" fill="rgb(124,194,74)"/><rect x="5" y="2" width="1.02" height="1.02" fill="rgb(101,169,56)"/><rect x="6" y="2" width="1.02" height="1.02" fill="rgb(120,189,70)"/><rect x="7" y="2" width="1.02" height="1.02" fill="rgb(102,169,56)"/><rect x="0" y="3" width="1.02" height="1.02" fill="rgb(101,168,55)"/><rect x="1" y="3" width="1.02" height="1.02" fill="rgb(118,187,69)"/><rect x="2" y="3" width="1.02" height="1.02" fill="rgb(100,167,55)"/><rect x="3" y="3" width="1.02" height="1.02" fill="rgb(116,185,67)"/><rect x="4" y="3" width="1.02" height="1.02" fill="rgb(106,174,60)"/><rect x="5" y="3" width="1.02" height="1.02" fill="rgb(110,178,63)"/><rect x="6" y="3" width="1.02" height="1.02" fill="rgb(122,192,73)"/><rect x="7" y="3" width="1.02" height="1.02" fill="rgb(117,186,69)"/><rect x="0" y="4" width="1.02" height="1.02" fill="rgb(121,191,72)"/><rect x="1" y="4" width="1.02" height="1.02" fill="rgb(121,191,72)"/><rect x="2" y="4" width="1.02" height="1.02" fill="rgb(114,183,66)"/><rect x="3" y="4" width="1.02" height="1.02" fill="rgb(119,188,70)"/><rect x="4" y="4" width="1.02" height="1.02" fill="rgb(116,185,67)"/><rect x="5" y="4" width="1.02" height="1.02" fill="rgb(101,169,56)"/><rect x="6" y="4" width="1.02" height="1.02" fill="rgb(104,172,58)"/><rect x="7" y="4" width="1.02" height="1.02" fill="rgb(110,179,63)"/><rect x="0" y="5" width="1.02" height="1.02" fill="rgb(121,191,72)"/><rect x="1" y="5" width="1.02" height="1.02" fill="rgb(123,192,73)"/><rect x="2" y="5" width="1.02" height="1.02" fill="rgb(118,188,70)"/><rect x="3" y="5" width="1.02" height="1.02" fill="rgb(114,183,66)"/><rect x="4" y="5" width="1.02" height="1.02" fill="rgb(104,172,58)"/><rect x="5" y="5" width="1.02" height="1.02" fill="rgb(121,191,72)"/><rect x="6" y="5" width="1.02" height="1.02" fill="rgb(101,169,56)"/><rect x="7" y="5" width="1.02" height="1.02" fill="rgb(106,175,60)"/><rect x="0" y="6" width="1.02" height="1.02" fill="rgb(118,188,69)"/><rect x="1" y="6" width="1.02" height="1.02" fill="rgb(100,167,55)"/><rect x="2" y="6" width="1.02" height="1.02" fill="rgb(115,184,67)"/><rect x="3" y="6" width="1.02" height="1.02" fill="rgb(121,191,72)"/><rect x="4" y="6" width="1.02" height="1.02" fill="rgb(117,187,69)"/><rect x="5" y="6" width="1.02" height="1.02" fill="rgb(95,162,51)"/><rect x="6" y="6" width="1.02" height="1.02" fill="rgb(112,181,64)"/><rect x="7" y="6" width="1.02" height="1.02" fill="rgb(110,179,63)"/><rect x="0" y="7" width="1.02" height="1.02" fill="rgb(117,186,68)"/><rect x="1" y="7" width="1.02" height="1.02" fill="rgb(105,174,59)"/><rect x="2" y="7" width="1.02" height="1.02" fill="rgb(103,171,58)"/><rect x="3" y="7" width="1.02" height="1.02" fill="rgb(97,164,52)"/><rect x="4" y="7" width="1.02" height="1.02" fill="rgb(95,162,51)"/><rect x="5" y="7" width="1.02" height="1.02" fill="rgb(101,168,56)"/><rect x="6" y="7" width="1.02" height="1.02" fill="rgb(114,183,66)"/><rect x="7" y="7" width="1.02" height="1.02" fill="rgb(97,165,53)"/></g><g transform="matrix(20 11.5 0 23 96 180)"><rect x="0" y="0" width="1.02" height="1.02" fill="rgb(110,178,63)"/><rect x="1" y="0" width="1.02" height="1.02" fill="rgb(110,179,63)"/><rect x="2" y="0" width="1.02" height="1.02" fill="rgb(113,181,65)"/><rect x="3" y="0" width="1.02" height="1.02" fill="rgb(112,181,65)"/><rect x="4" y="0" width="1.02" height="1.02" fill="rgb(120,189,71)"/><rect x="5" y="0" width="1.02" height="1.02" fill="rgb(111,179,63)"/><rect x="6" y="0" width="1.02" height="1.02" fill="rgb(97,165,53)"/><rect x="7" y="0" width="1.02" height="1.02" fill="rgb(110,179,63)"/><rect x="0" y="1" width="1.02" height="1.02" fill="rgb(113,181,65)"/><rect x="1" y="1" width="1.02" height="1.02" fill="rgb(108,176,61)"/><rect x="2" y="1" width="1.02" height="1.02" fill="rgb(109,177,62)"/><rect x="3" y="1" width="1.02" height="1.02" fill="rgb(119,189,70)"/><rect x="4" y="1" width="1.02" height="1.02" fill="rgb(107,175,61)"/><rect x="5" y="1" width="1.02" height="1.02" fill="rgb(114,183,66)"/><rect x="6" y="1" width="1.02" height="1.02" fill="rgb(115,184,67)"/><rect x="7" y="1" width="1.02" height="1.02" fill="rgb(100,167,55)"/><rect x="0" y="2" width="1.02" height="1.02" fill="rgb(103,171,57)"/><rect x="1" y="2" width="1.02" height="1.02" fill="rgb(106,174,60)"/><rect x="2" y="2" width="1.02" height="1.02" fill="rgb(125,88,57)"/><rect x="3" y="2" width="1.02" height="1.02" fill="rgb(137,97,66)"/><rect x="4" y="2" width="1.02" height="1.02" fill="rgb(119,189,70)"/><rect x="5" y="2" width="1.02" height="1.02" fill="rgb(142,101,70)"/><rect x="6" y="2" width="1.02" height="1.02" fill="rgb(113,182,65)"/><rect x="7" y="2" width="1.02" height="1.02" fill="rgb(97,164,52)"/><rect x="0" y="3" width="1.02" height="1.02" fill="rgb(141,100,69)"/><rect x="1" y="3" width="1.02" height="1.02" fill="rgb(147,105,74)"/><rect x="2" y="3" width="1.02" height="1.02" fill="rgb(130,92,61)"/><rect x="3" y="3" width="1.02" height="1.02" fill="rgb(126,89,58)"/><rect x="4" y="3" width="1.02" height="1.02" fill="rgb(141,100,69)"/><rect x="5" y="3" width="1.02" height="1.02" fill="rgb(131,93,62)"/><rect x="6" y="3" width="1.02" height="1.02" fill="rgb(136,97,66)"/><rect x="7" y="3" width="1.02" height="1.02" fill="rgb(137,97,66)"/><rect x="0" y="4" width="1.02" height="1.02" fill="rgb(144,102,71)"/><rect x="1" y="4" width="1.02" height="1.02" fill="rgb(126,89,58)"/><rect x="2" y="4" width="1.02" height="1.02" fill="rgb(144,102,71)"/><rect x="3" y="4" width="1.02" height="1.02" fill="rgb(143,102,71)"/><rect x="4" y="4" width="1.02" height="1.02" fill="rgb(132,93,62)"/><rect x="5" y="4" width="1.02" height="1.02" fill="rgb(123,86,55)"/><rect x="6" y="4" width="1.02" height="1.02" fill="rgb(124,87,56)"/><rect x="7" y="4" width="1.02" height="1.02" fill="rgb(144,102,71)"/><rect x="0" y="5" width="1.02" height="1.02" fill="rgb(135,95,64)"/><rect x="1" y="5" width="1.02" height="1.02" fill="rgb(136,96,65)"/><rect x="2" y="5" width="1.02" height="1.02" fill="rgb(129,91,60)"/><rect x="3" y="5" width="1.02" height="1.02" fill="rgb(135,96,65)"/><rect x="4" y="5" width="1.02" height="1.02" fill="rgb(141,100,69)"/><rect x="5" y="5" width="1.02" height="1.02" fill="rgb(124,88,57)"/><rect x="6" y="5" width="1.02" height="1.02" fill="rgb(139,98,67)"/><rect x="7" y="5" width="1.02" height="1.02" fill="rgb(123,87,56)"/><rect x="0" y="6" width="1.02" height="1.02" fill="rgb(134,94,63)"/><rect x="1" y="6" width="1.02" height="1.02" fill="rgb(139,98,67)"/><rect x="2" y="6" width="1.02" height="1.02" fill="rgb(148,105,74)"/><rect x="3" y="6" width="1.02" height="1.02" fill="rgb(133,94,63)"/><rect x="4" y="6" width="1.02" height="1.02" fill="rgb(134,95,64)"/><rect x="5" y="6" width="1.02" height="1.02" fill="rgb(131,93,62)"/><rect x="6" y="6" width="1.02" height="1.02" fill="rgb(123,87,56)"/><rect x="7" y="6" width="1.02" height="1.02" fill="rgb(141,100,69)"/><rect x="0" y="7" width="1.02" height="1.02" fill="rgb(133,94,63)"/><rect x="1" y="7" width="1.02" height="1.02" fill="rgb(142,100,69)"/><rect x="2" y="7" width="1.02" height="1.02" fill="rgb(130,92,61)"/><rect x="3" y="7" width="1.02" height="1.02" fill="rgb(136,97,66)"/><rect x="4" y="7" width="1.02" height="1.02" fill="rgb(131,93,62)"/><rect x="5" y="7" width="1.02" height="1.02" fill="rgb(144,102,71)"/><rect x="6" y="7" width="1.02" height="1.02" fill="rgb(126,89,58)"/><rect x="7" y="7" width="1.02" height="1.02" fill="rgb(125,88,57)"/></g><g transform="matrix(20 -11.5 0 23 256 272)"><rect x="0" y="0" width="1.02" height="1.02" fill="rgb(79,128,45)"/><rect x="1" y="0" width="1.02" height="1.02" fill="rgb(79,129,45)"/><rect x="2" y="0" width="1.02" height="1.02" fill="rgb(81,131,47)"/><rect x="3" y="0" width="1.02" height="1.02" fill="rgb(81,130,46)"/><rect x="4" y="0" width="1.02" height="1.02" fill="rgb(86,136,51)"/><rect x="5" y="0" width="1.02" height="1.02" fill="rgb(80,129,46)"/><rect x="6" y="0" width="1.02" height="1.02" fill="rgb(70,118,38)"/><rect x="7" y="0" width="1.02" height="1.02" fill="rgb(79,129,46)"/><rect x="0" y="1" width="1.02" height="1.02" fill="rgb(81,131,47)"/><rect x="1" y="1" width="1.02" height="1.02" fill="rgb(78,127,44)"/><rect x="2" y="1" width="1.02" height="1.02" fill="rgb(78,128,45)"/><rect x="3" y="1" width="1.02" height="1.02" fill="rgb(86,136,51)"/><rect x="4" y="1" width="1.02" height="1.02" fill="rgb(77,126,44)"/><rect x="5" y="1" width="1.02" height="1.02" fill="rgb(82,132,48)"/><rect x="6" y="1" width="1.02" height="1.02" fill="rgb(83,132,48)"/><rect x="7" y="1" width="1.02" height="1.02" fill="rgb(72,120,39)"/><rect x="0" y="2" width="1.02" height="1.02" fill="rgb(74,123,41)"/><rect x="1" y="2" width="1.02" height="1.02" fill="rgb(76,125,43)"/><rect x="2" y="2" width="1.02" height="1.02" fill="rgb(90,64,41)"/><rect x="3" y="2" width="1.02" height="1.02" fill="rgb(99,70,47)"/><rect x="4" y="2" width="1.02" height="1.02" fill="rgb(86,136,51)"/><rect x="5" y="2" width="1.02" height="1.02" fill="rgb(102,72,50)"/><rect x="6" y="2" width="1.02" height="1.02" fill="rgb(81,131,47)"/><rect x="7" y="2" width="1.02" height="1.02" fill="rgb(70,118,38)"/><rect x="0" y="3" width="1.02" height="1.02" fill="rgb(102,72,50)"/><rect x="1" y="3" width="1.02" height="1.02" fill="rgb(106,75,53)"/><rect x="2" y="3" width="1.02" height="1.02" fill="rgb(93,66,44)"/><rect x="3" y="3" width="1.02" height="1.02" fill="rgb(91,64,42)"/><rect x="4" y="3" width="1.02" height="1.02" fill="rgb(102,72,50)"/><rect x="5" y="3" width="1.02" height="1.02" fill="rgb(94,67,44)"/><rect x="6" y="3" width="1.02" height="1.02" fill="rgb(98,69,47)"/><rect x="7" y="3" width="1.02" height="1.02" fill="rgb(99,70,47)"/><rect x="0" y="4" width="1.02" height="1.02" fill="rgb(104,73,51)"/><rect x="1" y="4" width="1.02" height="1.02" fill="rgb(91,64,42)"/><rect x="2" y="4" width="1.02" height="1.02" fill="rgb(104,74,51)"/><rect x="3" y="4" width="1.02" height="1.02" fill="rgb(103,73,51)"/><rect x="4" y="4" width="1.02" height="1.02" fill="rgb(95,67,45)"/><rect x="5" y="4" width="1.02" height="1.02" fill="rgb(88,62,40)"/><rect x="6" y="4" width="1.02" height="1.02" fill="rgb(89,63,41)"/><rect x="7" y="4" width="1.02" height="1.02" fill="rgb(104,73,51)"/><rect x="0" y="5" width="1.02" height="1.02" fill="rgb(97,69,46)"/><rect x="1" y="5" width="1.02" height="1.02" fill="rgb(98,69,47)"/><rect x="2" y="5" width="1.02" height="1.02" fill="rgb(93,66,43)"/><rect x="3" y="5" width="1.02" height="1.02" fill="rgb(97,69,46)"/><rect x="4" y="5" width="1.02" height="1.02" fill="rgb(102,72,50)"/><rect x="5" y="5" width="1.02" height="1.02" fill="rgb(90,63,41)"/><rect x="6" y="5" width="1.02" height="1.02" fill="rgb(100,71,48)"/><rect x="7" y="5" width="1.02" height="1.02" fill="rgb(89,63,40)"/><rect x="0" y="6" width="1.02" height="1.02" fill="rgb(96,68,46)"/><rect x="1" y="6" width="1.02" height="1.02" fill="rgb(100,71,48)"/><rect x="2" y="6" width="1.02" height="1.02" fill="rgb(106,75,53)"/><rect x="3" y="6" width="1.02" height="1.02" fill="rgb(96,68,45)"/><rect x="4" y="6" width="1.02" height="1.02" fill="rgb(97,68,46)"/><rect x="5" y="6" width="1.02" height="1.02" fill="rgb(94,67,44)"/><rect x="6" y="6" width="1.02" height="1.02" fill="rgb(89,63,40)"/><rect x="7" y="6" width="1.02" height="1.02" fill="rgb(102,72,50)"/><rect x="0" y="7" width="1.02" height="1.02" fill="rgb(96,68,45)"/><rect x="1" y="7" width="1.02" height="1.02" fill="rgb(102,72,50)"/><rect x="2" y="7" width="1.02" height="1.02" fill="rgb(93,66,44)"/><rect x="3" y="7" width="1.02" height="1.02" fill="rgb(98,70,47)"/><rect x="4" y="7" width="1.02" height="1.02" fill="rgb(94,67,44)"/><rect x="5" y="7" width="1.02" height="1.02" fill="rgb(104,73,51)"/><rect x="6" y="7" width="1.02" height="1.02" fill="rgb(91,64,42)"/><rect x="7" y="7" width="1.02" height="1.02" fill="rgb(90,64,41)"/></g><g fill="none" stroke="#3b2d20" stroke-width="14" stroke-linejoin="round"><polygon points="256,88 416,180 256,272 96,180"/><polygon points="96,180 256,272 256,456 96,364"/><polygon points="416,180 256,272 256,456 416,364"/></g><g transform="translate(120 200) skewY(30)"><path d="M22 0 h34 c44 0 70 30 70 66 c0 36 -26 66 -70 66 h-34 z M52 30 v72 h6 c22 0 36 -14 36 -36 c0 -22 -14 -36 -36 -36 z" fill="#fbf6ea" stroke="#3b2d20" stroke-width="10" stroke-linejoin="round" fill-rule="evenodd"/></g></g>
</svg>
